<?xml version="1.0" standalone="no"?>
<!DOCTYPE svg PUBLIC "-//W3C//DTD SVG 20010904//EN"
 "http://www.w3.org/TR/2001/REC-SVG-20010904/DTD/svg10.dtd">
<svg version="1.0" xmlns="http://www.w3.org/2000/svg"
 width="512.000000pt" height="512.000000pt" viewBox="0 0 512.000000 512.000000"
 preserveAspectRatio="xMidYMid meet">
<metadata>
Created by potrace 1.11, written by Peter Selinger 2001-2013
</metadata>
<g transform="translate(0.000000,512.000000) scale(0.100000,-0.100000)"
fill="#000000" stroke="none">
<path d="M2325 5109 c-995 -102 -1830 -751 -2172 -1688 -50 -138 -100 -337
-125 -496 -18 -116 -22 -182 -22 -380 1 -273 17 -407 79 -644 163 -619 559
-1157 1110 -1506 112 -71 358 -192 489 -240 645 -238 1406 -196 2019 111 256
129 440 259 641 454 149 145 258 276 368 445 365 555 494 1277 347 1930 -235
1039 -1099 1843 -2149 2000 -127 19 -460 27 -585 14z m446 -339 c696 -70 1316
-469 1681 -1083 463 -776 412 -1729 -130 -2461 -94 -126 -317 -350 -442 -443
-904 -670 -2124 -570 -2906 238 -327 339 -528 747 -601 1221 -23 156 -23 461
1 618 79 510 307 950 677 1305 464 445 1096 667 1720 605z"/>
<path d="M1461 3889 c-55 -17 -111 -60 -139 -108 l-27 -46 -3 -1190 c-2 -1145
-2 -1191 16 -1225 31 -58 91 -93 166 -98 76 -5 126 9 172 51 74 64 68 -3 74
942 l5 849 320 -653 c331 -675 361 -728 432 -757 42 -18 124 -18 166 0 71 29
101 81 432 757 l320 653 5 -849 c6 -945 0 -878 74 -942 46 -42 96 -56 172 -51
75 5 135 40 166 98 18 34 18 80 16 1225 l-3 1190 -27 46 c-47 80 -128 119
-248 119 -125 0 -188 -36 -254 -144 -24 -39 -198 -394 -387 -788 -189 -395
-346 -714 -350 -710 -3 4 -160 327 -349 717 -189 391 -354 730 -368 755 -43
76 -73 110 -121 138 -38 22 -58 27 -136 29 -49 1 -105 -2 -124 -8z"/>
</g>
</svg>
