<?xml version="1.0" standalone="no"?>
<!DOCTYPE svg PUBLIC "-//W3C//DTD SVG 20010904//EN"
 "http://www.w3.org/TR/2001/REC-SVG-20010904/DTD/svg10.dtd">
<svg version="1.0" xmlns="http://www.w3.org/2000/svg"
 width="512.000000pt" height="512.000000pt" viewBox="0 0 512.000000 512.000000"
 preserveAspectRatio="xMidYMid meet">
<metadata>
Created by potrace 1.11, written by Peter Selinger 2001-2013
</metadata>
<g transform="translate(0.000000,512.000000) scale(0.100000,-0.100000)"
fill="#000000" stroke="none">
<path d="M1520 3905 l0 -424 63 -44 c34 -24 141 -97 237 -162 96 -65 209 -141
250 -170 127 -87 530 -359 547 -370 10 -5 22 -14 29 -20 6 -5 81 -56 165 -113
85 -57 343 -232 574 -388 231 -157 503 -342 605 -410 102 -69 291 -197 420
-285 129 -88 243 -165 253 -170 16 -9 17 13 17 414 l0 423 -152 104 c-84 57
-223 151 -308 208 -207 141 -394 268 -570 387 -134 92 -238 162 -695 471 -373
252 -925 627 -1090 739 -66 45 -171 116 -232 158 l-113 77 0 -425z"/>
<path d="M450 3358 l0 -423 78 -52 c103 -69 632 -427 755 -511 54 -37 105 -71
115 -77 9 -5 19 -12 22 -16 3 -3 75 -52 160 -109 85 -57 196 -131 245 -165 90
-62 457 -311 870 -591 121 -81 294 -199 385 -261 303 -206 515 -348 522 -351
5 -2 8 187 8 420 l0 423 -66 45 c-302 205 -556 377 -699 474 -93 63 -242 163
-330 223 -88 60 -263 179 -390 265 -126 85 -291 197 -365 247 -74 51 -218 149
-320 217 -203 137 -324 220 -717 487 -144 97 -264 177 -267 177 -3 0 -6 -190
-6 -422z"/>
<path d="M470 1968 l0 -423 78 -52 c88 -58 398 -268 675 -457 104 -70 191
-125 194 -122 3 3 6 193 5 422 0 342 -2 418 -13 425 -8 5 -105 70 -216 146
-464 316 -712 483 -717 483 -3 0 -6 -190 -6 -422z"/>
</g>
</svg>
